<svg width="12" height="16" viewBox="0 0 12 16" fill="none" xmlns="http://www.w3.org/2000/svg">
<path fill-rule="evenodd" clip-rule="evenodd" d="M8.25 7.625C8.25 8.87 7.245 9.875 6 9.875C4.755 9.875 3.75 8.87 3.75 7.625V3.125C3.75 1.88 4.755 0.875 6 0.875C7.245 0.875 8.25 1.88 8.25 3.125V7.625ZM6 11.375C8.07 11.375 9.75 9.695 9.75 7.625H11.25C11.25 10.2725 9.2925 12.4475 6.75 12.815V15.125H5.25V12.815C2.7075 12.4475 0.75 10.2725 0.75 7.625H2.25C2.25 9.695 3.93 11.375 6 11.375Z" fill="#1D192B"/>
</svg>
